<svg width="26" height="26" viewBox="0 0 26 26" fill="none" xmlns="http://www.w3.org/2000/svg">
<path fill-rule="evenodd" clip-rule="evenodd" d="M13 26C20.1797 26 26 20.1797 26 13C26 5.8203 20.1797 0 13 0C5.8203 0 0 5.8203 0 13C0 20.1797 5.8203 26 13 26ZM19.024 11.851L14.149 6.97595C13.5144 6.34135 12.4856 6.34135 11.851 6.97595C11.2163 7.61055 11.2163 8.63945 11.851 9.27405L13.9519 11.375L8.125 11.375C7.22754 11.375 6.5 12.1025 6.5 13C6.5 13.8975 7.22754 14.625 8.125 14.625H13.9519L11.851 16.726C11.2163 17.3606 11.2163 18.3894 11.851 19.024C12.4856 19.6587 13.5144 19.6587 14.149 19.024L19.024 14.149C19.6587 13.5144 19.6587 12.4856 19.024 11.851Z" fill="white"/>
</svg>
