<svg width="26" height="26" viewBox="0 0 26 26" fill="none" xmlns="http://www.w3.org/2000/svg">
<path fill-rule="evenodd" clip-rule="evenodd" d="M25.6 12.8C25.6 19.8692 19.8692 25.6 12.8 25.6C5.73076 25.6 0 19.8692 0 12.8C0 5.73076 5.73076 0 12.8 0C19.8692 0 25.6 5.73076 25.6 12.8ZM16 8C16 9.76731 14.5673 11.2 12.8 11.2C11.0327 11.2 9.6 9.76731 9.6 8C9.6 6.23269 11.0327 4.8 12.8 4.8C14.5673 4.8 16 6.23269 16 8ZM12.7999 14.4C9.57182 14.4 6.79031 16.3119 5.52598 19.0652C7.28645 21.1073 9.89224 22.4 12.8 22.4C15.7076 22.4 18.3134 21.1073 20.0739 19.0653C18.8096 16.312 16.028 14.4 12.7999 14.4Z" fill="white"/>
</svg>
