<svg width="111" height="98" viewBox="0 0 111 98" fill="none" xmlns="http://www.w3.org/2000/svg">
<path d="M77.9286 15.2158L56.1183 -4.57764e-05V15.3587L66.8447 22.8595L77.9286 15.2158Z" fill="white"/>
<path d="M28.893 50.1973L78.0972 15.7597V30.8261L28.893 65.2637V50.1973Z" fill="white"/>
<path d="M110.906 53.7386V38.6861L76.6152 14.3153L65.8992 22.1999L110.906 53.7386Z" fill="white"/>
<path d="M44.8197 41.9341H89.4591C92.5362 41.9341 95.5388 42.8805 98.0599 44.6448L111 53.7012H44.8197V41.9341Z" fill="white"/>
<path d="M77.8538 82.6882L56.0435 97.9041V82.5454L66.7699 75.0446L77.8538 82.6882Z" fill="white"/>
<path d="M28.8181 47.7068L78.0223 82.1444V67.078L28.8181 32.6404V47.7068Z" fill="white"/>
<path d="M110.831 44.1655V59.2181L76.5404 83.5888L65.8244 75.7042L110.831 44.1655Z" fill="white"/>
<path d="M44.7448 55.97H89.3842C92.4613 55.97 95.4639 55.0237 97.985 53.2593L110.925 44.203H44.7448V55.97Z" fill="white"/>
<path d="M33.0714 15.2158L54.8817 -4.57764e-05V15.3587L44.1553 22.8595L33.0714 15.2158Z" fill="white"/>
<path d="M82.107 50.1973L32.9028 15.7597V30.8261L82.107 65.2637V50.1973Z" fill="white"/>
<path d="M0.093689 53.7386L0.093689 38.6861L34.3848 14.3153L45.1008 22.1999L0.093689 53.7386Z" fill="white"/>
<path d="M66.1803 41.9341H21.5409C18.4638 41.9341 15.4612 42.8805 12.9401 44.6448L0 53.7012H66.1803V41.9341Z" fill="white"/>
<path d="M33.1462 82.6882L54.9565 97.9041V82.5454L44.2301 75.0446L33.1462 82.6882Z" fill="white"/>
<path d="M82.1819 47.7068L32.9777 82.1444V67.078L82.1819 32.6404V47.7068Z" fill="white"/>
<path d="M0.168518 44.1655L0.168518 59.2181L34.4596 83.5888L45.1756 75.7042L0.168518 44.1655Z" fill="white"/>
<path d="M66.2552 55.97H21.6158C18.5387 55.97 15.5361 55.0237 13.015 53.2593L0.0748901 44.203H66.2552V55.97Z" fill="white"/>
</svg>
