<svg width="18" height="17" viewBox="0 0 18 17" fill="none" xmlns="http://www.w3.org/2000/svg">
<path d="M11.7206 14.2118L11.7189 14.2147C11.4317 14.6723 11.1964 15.1214 11.0152 15.5618C10.4694 14.229 9.43046 12.8205 7.8623 11.6441C7.20933 11.1516 6.53757 10.7589 5.85552 10.4783C7.51601 9.80877 9.05307 8.60074 10.1106 7.06691C10.4825 6.52959 10.7853 5.9878 11.0128 5.43246C11.6337 6.95297 12.8483 8.4305 14.3407 9.48667C14.9219 9.90008 15.524 10.2367 16.1432 10.4878C14.4048 11.2234 12.6775 12.7018 11.7206 14.2118Z" stroke="#E5E5E5" stroke-width="1.5"/>
<path d="M4.30682 5.44722L4.30682 5.44722L4.30563 5.4491C4.19179 5.63054 4.09247 5.81014 4.00835 5.9878C3.68992 5.31467 3.1472 4.62355 2.36827 4.03922C2.07595 3.81875 1.77581 3.63411 1.47037 3.48956C2.3029 3.10916 3.06382 2.484 3.60019 1.70606C3.75883 1.47687 3.89499 1.24545 4.00676 1.00949C4.36867 1.77499 4.99325 2.50201 5.74322 3.03278C5.9987 3.21452 6.26218 3.36956 6.53252 3.4952C5.64656 3.92226 4.79499 4.67683 4.30682 5.44722Z" stroke="#E5E5E5"/>
</svg>
